<?xml version="1.0" standalone="no"?>
<!DOCTYPE svg PUBLIC "-//W3C//DTD SVG 20010904//EN"
 "http://www.w3.org/TR/2001/REC-SVG-20010904/DTD/svg10.dtd">
<svg version="1.0" xmlns="http://www.w3.org/2000/svg"
 width="700.000000pt" height="700.000000pt" viewBox="0 0 700.000000 700.000000"
 preserveAspectRatio="xMidYMid meet">
<metadata>
Created by potrace 1.11, written by Peter Selinger 2001-2013
</metadata>
<g transform="translate(0.000000,700.000000) scale(0.100000,-0.100000)"
fill="#000000" stroke="none">
<path d="M3218 6775 c-2 -1 -66 -5 -143 -9 -139 -7 -183 -10 -280 -21 -27 -4
-68 -8 -90 -11 -446 -51 -876 -182 -1230 -373 -89 -48 -299 -184 -330 -215 -7
-6 -48 -42 -92 -79 -123 -105 -259 -260 -358 -412 -155 -236 -281 -606 -303
-890 -9 -110 -9 -341 0 -415 54 -467 304 -674 835 -694 57 -2 83 0 83 8 0 6
-13 38 -28 71 -60 128 -85 281 -86 535 0 311 34 572 107 800 137 428 418 713
837 849 66 21 185 50 230 56 14 2 41 6 60 9 78 13 97 16 179 21 145 11 321 12
327 4 3 -5 -14 -95 -36 -201 -23 -106 -44 -204 -46 -217 -5 -22 -28 -128 -39
-176 -3 -11 -7 -31 -10 -45 -2 -14 -29 -140 -59 -280 -64 -294 -217 -1008
-221 -1030 -2 -8 -10 -46 -19 -85 -8 -38 -38 -176 -65 -305 -28 -129 -57 -264
-65 -300 -8 -36 -17 -76 -19 -90 -3 -14 -19 -92 -37 -175 -18 -82 -34 -161
-36 -174 -3 -12 -11 -51 -19 -85 -8 -33 -16 -72 -19 -86 -2 -14 -16 -77 -30
-140 -14 -63 -27 -126 -30 -140 -8 -41 -39 -181 -41 -190 -1 -3 -5 -23 -10
-45 -4 -22 -21 -101 -37 -175 -17 -74 -31 -142 -32 -150 -1 -8 -8 -37 -14 -65
-15 -66 -73 -333 -78 -365 -3 -14 -20 -95 -39 -180 -19 -85 -43 -200 -55 -255
-12 -55 -23 -107 -25 -115 -1 -8 -17 -80 -34 -160 -17 -80 -47 -219 -66 -310
-20 -91 -40 -183 -44 -206 l-8 -41 624 0 c441 0 626 3 632 11 5 6 11 25 14 41
3 17 9 48 15 70 6 22 14 56 17 75 3 19 15 77 26 129 11 51 22 103 25 115 9 48
65 304 74 336 5 19 11 49 14 65 3 17 14 71 25 120 10 50 42 198 70 330 29 132
63 290 76 350 25 115 94 435 101 470 2 11 6 31 9 45 3 14 8 36 11 50 3 14 7
36 10 50 3 14 11 52 19 85 14 59 71 325 81 375 3 14 16 77 30 140 14 63 28
126 30 139 3 13 43 202 91 420 47 218 87 407 90 421 2 14 9 45 14 70 6 25 12
52 14 60 11 47 58 269 62 290 2 14 10 53 18 86 8 34 16 73 19 85 2 13 9 44 15
69 5 25 12 56 15 70 2 14 16 79 31 145 15 66 29 131 31 145 3 14 11 53 19 86
8 34 16 73 19 85 9 53 57 276 66 309 5 19 11 46 13 60 16 88 40 199 46 208 5
8 35 5 101 -9 264 -56 277 -59 365 -74 17 -3 66 -12 110 -20 92 -16 283 -45
335 -50 19 -2 73 -7 120 -12 170 -16 512 -9 621 12 13 3 36 7 50 10 14 3 57
14 95 26 238 73 414 218 520 429 38 76 89 226 99 287 3 21 7 50 10 63 8 42 15
110 20 191 l5 77 -83 -29 c-159 -56 -368 -105 -532 -124 -27 -3 -63 -8 -80
-10 -167 -22 -520 -22 -750 0 -22 2 -70 6 -106 10 -36 3 -74 7 -85 9 -10 2
-44 7 -74 11 -30 4 -125 17 -210 30 -85 13 -177 27 -205 30 -27 4 -57 8 -65
10 -8 2 -35 7 -60 10 -25 3 -61 7 -80 10 -19 3 -62 8 -95 11 -33 3 -69 8 -80
10 -19 4 -117 13 -200 19 -22 2 -80 6 -130 10 -84 6 -562 15 -567 10z m87
-127 c-3 -29 -8 -60 -10 -68 -2 -8 -6 -42 -10 -75 -3 -33 -8 -73 -10 -90 -3
-16 -9 -68 -15 -115 -6 -47 -12 -98 -15 -115 -2 -16 -7 -57 -11 -90 -3 -33 -8
-68 -10 -79 -2 -10 -6 -44 -9 -75 -4 -31 -8 -67 -10 -81 -2 -14 -7 -52 -10
-85 -4 -33 -8 -67 -10 -75 -2 -8 -7 -42 -10 -75 -3 -33 -8 -71 -10 -85 -5 -27
-6 -37 -30 -230 -20 -164 -22 -180 -35 -280 -6 -47 -13 -103 -16 -125 -2 -22
-6 -56 -9 -75 -3 -19 -7 -55 -10 -80 -4 -25 -8 -56 -10 -70 -2 -14 -6 -47 -10
-75 -3 -27 -8 -66 -10 -85 -3 -19 -7 -53 -10 -75 -2 -21 -9 -73 -15 -115 -5
-41 -12 -96 -15 -122 -3 -26 -9 -78 -14 -115 -20 -146 -22 -173 -13 -173 9 0
418 197 575 277 l50 25 -5 -29 c-3 -15 -29 -118 -57 -228 -29 -110 -54 -207
-56 -215 -4 -17 -178 -700 -272 -1065 -35 -137 -65 -257 -67 -265 -6 -24 -163
-636 -356 -1390 -45 -173 -82 -322 -84 -330 -29 -121 -109 -426 -113 -430 -3
-3 -2 15 2 40 10 68 13 90 20 150 3 30 10 82 15 115 5 33 11 85 15 115 3 30 8
66 10 80 2 14 7 43 9 65 4 34 12 95 22 170 1 11 5 43 8 70 9 73 14 116 20 155
3 19 8 53 11 75 2 22 16 130 30 240 14 110 28 216 30 235 2 19 13 103 24 185
11 83 23 177 26 210 4 33 8 67 10 75 2 8 7 39 10 69 4 30 8 61 10 70 1 9 6 45
9 81 4 36 11 90 16 120 5 30 14 96 20 145 6 50 13 108 16 130 11 83 12 105 2
105 -5 0 -32 -13 -61 -28 -175 -97 -447 -232 -447 -223 0 6 18 93 41 194 22
100 42 189 44 197 20 90 41 180 70 310 20 85 43 187 51 225 21 97 20 92 38
166 8 37 17 78 20 90 3 13 7 34 10 46 6 22 8 33 21 93 12 57 15 71 19 88 2 9
32 141 66 292 107 474 137 610 180 795 22 99 50 222 61 274 11 51 22 101 25
110 2 9 20 88 39 176 20 88 38 167 40 175 3 14 32 143 40 183 2 10 6 26 9 35
3 9 7 28 10 42 2 14 16 77 31 140 15 63 29 124 31 135 16 82 48 215 51 215 3
0 2 -24 -2 -52z"/>
<path d="M2916 4273 c-6 -14 -5 -15 5 -6 7 7 10 15 7 18 -3 3 -9 -2 -12 -12z"/>
<path d="M2911 4234 c0 -11 3 -14 6 -6 3 7 2 16 -1 19 -3 4 -6 -2 -5 -13z"/>
<path d="M2906 4202 c-3 -5 -7 -19 -10 -33 -2 -13 -10 -49 -16 -79 -5 -30 -26
-131 -46 -225 -46 -218 -43 -204 -50 -247 l-6 -37 238 95 c132 53 258 104 281
114 23 10 43 16 46 14 2 -3 -2 -33 -9 -67 -8 -34 -16 -78 -20 -97 -3 -19 -17
-88 -30 -154 -13 -65 -24 -124 -23 -130 0 -6 34 120 75 279 41 160 73 295 71
302 -1 7 -32 -3 -82 -28 -348 -170 -491 -236 -497 -226 -4 6 -4 15 -1 20 3 4
7 23 9 40 3 18 9 57 14 87 13 75 17 100 35 210 20 127 25 152 31 162 3 4 3 8
0 8 -3 0 -7 -4 -10 -8z"/>
</g>
</svg>
