<?xml version="1.0" encoding="UTF-8" standalone="no"?>
<!-- Created with Inkscape (http://www.inkscape.org/) -->

<svg
   xmlns:dc="http://purl.org/dc/elements/1.1/"
   xmlns:cc="http://creativecommons.org/ns#"
   xmlns:rdf="http://www.w3.org/1999/02/22-rdf-syntax-ns#"
   xmlns:svg="http://www.w3.org/2000/svg"
   xmlns="http://www.w3.org/2000/svg"
   xmlns:sodipodi="http://sodipodi.sourceforge.net/DTD/sodipodi-0.dtd"
   xmlns:inkscape="http://www.inkscape.org/namespaces/inkscape"
   width="181.69804mm"
   height="60.749287mm"
   viewBox="0 0 643.81197 215.25338"
   id="svg2"
   version="1.1"
   inkscape:version="0.91 r"
   sodipodi:docname="torspark-logo.svg">
  <defs
     id="defs4" />
  <sodipodi:namedview
     id="base"
     pagecolor="#ffffff"
     bordercolor="#666666"
     borderopacity="1.0"
     inkscape:pageopacity="0.0"
     inkscape:pageshadow="2"
     inkscape:zoom="0.49497475"
     inkscape:cx="196.7756"
     inkscape:cy="-51.806716"
     inkscape:document-units="px"
     inkscape:current-layer="layer1"
     showgrid="false"
     inkscape:window-width="1366"
     inkscape:window-height="744"
     inkscape:window-x="0"
     inkscape:window-y="24"
     inkscape:window-maximized="1"
     fit-margin-top="5"
     fit-margin-left="5"
     fit-margin-right="5"
     fit-margin-bottom="5" />
  <metadata
     id="metadata7">
    <rdf:RDF>
      <cc:Work
         rdf:about="">
        <dc:format>image/svg+xml</dc:format>
        <dc:type
           rdf:resource="http://purl.org/dc/dcmitype/StillImage" />
        <dc:title></dc:title>
      </cc:Work>
    </rdf:RDF>
  </metadata>
  <g
     inkscape:label="Layer 1"
     inkscape:groupmode="layer"
     id="layer1"
     transform="translate(-4.0940116,-370.44948)">
    <path
       style="font-style:italic;font-variant:normal;font-weight:bold;font-stretch:normal;font-size:180px;line-height:125%;font-family:'Lobster Two';-inkscape-font-specification:'Lobster Two';letter-spacing:0px;word-spacing:0px;fill:#008080;fill-opacity:1;stroke:none;stroke-width:1px;stroke-linecap:butt;stroke-linejoin:miter;stroke-opacity:1"
       d="m 84.091797,388.16602 c -45.36,0 -62.28125,22.8607 -62.28125,45.7207 0,14.04 6.301719,18.53906 19.261719,18.53906 -0.72,-2.16 -2.521485,-3.23867 -2.521485,-13.13867 0,-28.08 15.121485,-35.46094 34.021485,-35.46094 l 1.978515,0 -25.558593,119.16016 25.919921,0 24.839844,-115.56055 c 9.719997,2.16 19.079377,3.96094 27.359377,3.96094 15.12,0 22.68101,-7.19938 23.04101,-22.85938 -4.86,1.98 -12.06093,3.7793 -21.96093,3.7793 -14.94,0 -24.83961,-4.14062 -44.099613,-4.14062 z m -1.810547,0.0762 -7.453125,58.90625 13.132813,-6.42969 -21.011719,82.24414 7.314453,-56.66406 -10.830078,5.61328 18.847656,-83.66992 z m -7.625,48.41992 -3.59375,17.25586 11.791016,-4.67969 -2.552735,12.7793 3.947266,-15.75 -12.207031,5.875 2.615234,-15.48047 z"
       id="path4283"
       inkscape:connector-curvature="0" />
    <path
       inkscape:connector-curvature="0"
       id="path4285"
       style="font-style:italic;font-variant:normal;font-weight:bold;font-stretch:normal;font-size:180px;line-height:125%;font-family:'Lobster Two';-inkscape-font-specification:'Lobster Two';letter-spacing:0px;word-spacing:0px;fill:#008080;fill-opacity:1;stroke:none;stroke-width:1px;stroke-linecap:butt;stroke-linejoin:miter;stroke-opacity:1"
       d="m 142.97233,432.08651 c -37.08,0 -49.319998,42.84 -49.319998,63.54 0,20.52 12.059998,28.44 28.799998,28.44 22.14,0 40.32,-21.06 43.2,-54.54 12.96,-2.16 24.84,-7.56 31.68,-14.94 l -1.62,-4.86 c -7.74,5.4 -19.44,10.8 -27.72,10.8 -0.54,0 -1.26,0 -1.98,-0.18 -0.18,-18.72 -7.74,-28.26 -23.04,-28.26 z m -13.32,75.06 c -6.84,0 -9.18,-2.7 -9.18,-14.58 0,-17.64 11.16,-49.68 23.94,-49.68 4.5,0 6.48,2.7 6.84,10.08 -3.24,1.26 -5.58,4.5 -5.58,9.54 0,3.6 1.08,6.66 4.86,7.56 -2.7,21.24 -12.06,37.08 -20.88,37.08 z" />
    <path
       inkscape:connector-curvature="0"
       id="path4287"
       style="font-style:italic;font-variant:normal;font-weight:bold;font-stretch:normal;font-size:180px;line-height:125%;font-family:'Lobster Two';-inkscape-font-specification:'Lobster Two';letter-spacing:0px;word-spacing:0px;fill:#008080;fill-opacity:1;stroke:none;stroke-width:1px;stroke-linecap:butt;stroke-linejoin:miter;stroke-opacity:1"
       d="m 187.51389,432.98651 -19.08,90 25.92,0 14.4,-68.4 c 4.68,-4.32 8.64,-7.2 13.14,-7.2 5.4,0 0.36,11.34 10.44,11.34 8.82,0 12.96,-6.84 12.96,-13.14 0,-6.84 -4.32,-13.5 -12.42,-13.5 -7.2,0 -15.12,5.58 -21.96,12.24 l 2.52,-11.34 -25.92,0 z" />
    <path
       inkscape:connector-curvature="0"
       id="path4289"
       style="font-style:italic;font-variant:normal;font-weight:bold;font-stretch:normal;font-size:180px;line-height:125%;font-family:'Lobster Two';-inkscape-font-specification:'Lobster Two';letter-spacing:0px;word-spacing:0px;fill:#008080;fill-opacity:1;stroke:none;stroke-width:1px;stroke-linecap:butt;stroke-linejoin:miter;stroke-opacity:1"
       d="m 301.7426,490.58794 c -3.42,2.88 -8.45714,6.29857 -13.31714,9.17857 0.54,-2.16 0.72,-4.32 0.72,-6.84 0,-11.88 -1.8,-18.9 -3.96,-65.52 l -26.64,3.6 c -5.58,17.64 -12.06,35.46 -22.14,53.28 -5.04,2.34 -9.54,8.46 -9.54,16.74 0,10.98 7.92,23.04 26.28,23.04 9.18,0 20.7,-2.88 28.26,-10.8 8.28,-4.86 13.93893,-7.81607 23.29893,-18.61607 z m -52.55714,0.17857 c 0,-3.06 -1.8,-5.22 -4.14,-6.3 5.94,-11.52 10.98,-22.32 14.58,-34.02 1.8,27.72 3.42,33.3 3.42,42.66 0,12.6 -7.74,16.74 -15.66,16.74 -7.92,0 -10.98,-4.14 -10.98,-12.6 0.9,1.8 3.06,2.34 4.86,2.34 4.68,0 7.92,-4.5 7.92,-8.82 z"
       sodipodi:nodetypes="ccscccsscccsccsscss" />
    <path
       style="font-style:italic;font-variant:normal;font-weight:bold;font-stretch:normal;font-size:180px;line-height:125%;font-family:'Lobster Two';-inkscape-font-specification:'Lobster Two';letter-spacing:0px;word-spacing:0px;fill:#008080;fill-opacity:1;stroke:none;stroke-width:1px;stroke-linecap:butt;stroke-linejoin:miter;stroke-opacity:1"
       d="m 315.21094,426.32617 -30.0586,141.66016 27.17969,-6.48047 9.35938,-43.91992 c 1.98,3.42 6.30078,6.48047 15.30078,6.48047 34.92,0 44.27929,-39.23907 44.27929,-63.53907 0,-21.42 -9.71898,-28.4414 -21.95898,-28.4414 -9,0 -15.84055,3.24023 -21.06055,7.74023 l 2.87891,-13.5 -25.91992,0 z m 5.07031,0.0274 -7.45313,59.85156 13.13282,-6.5332 -21.01172,83.5625 7.31445,-57.57227 -10.83008,5.70312 18.84766,-85.01171 z m 27.33008,18.69336 c 3.24,0 9,1.07945 9,14.93945 0,16.92 -6.29922,48.41992 -25.19922,48.41992 -4.14,0 -6.11984,-2.16063 -6.83984,-4.14063 l 10.61914,-50.39843 c 3.42,-5.76 8.45992,-8.82031 12.41992,-8.82031 z m -34.95508,30.50195 -3.59375,17.53515 11.79102,-4.75586 -2.55274,12.98438 3.94727,-16.00391 -12.20703,5.97071 2.61523,-15.73047 z"
       id="path4291"
       inkscape:connector-curvature="0" />
    <path
       inkscape:connector-curvature="0"
       id="path4293"
       style="font-style:italic;font-variant:normal;font-weight:bold;font-stretch:normal;font-size:180px;line-height:125%;font-family:'Lobster Two';-inkscape-font-specification:'Lobster Two';letter-spacing:0px;word-spacing:0px;fill:#008080;fill-opacity:1;stroke:none;stroke-width:1px;stroke-linecap:butt;stroke-linejoin:miter;stroke-opacity:1"
       d="m 446.38671,432.98651 -1.8,8.46 c -1.26,-8.28 -8.82,-9.36 -14.76,-9.36 -31.32,0 -46.26,38.7 -46.26,63 0,21.42 11.7,28.98 23.94,28.98 12.78,0 21.42,-8.46 26.82,-16.74 1.44,10.26 7.92,15.66 17.64,15.66 9.72,0 25.92,-2.88 36.18,-32.22 l -7.56,0 c -2.7,9 -7.56,15.84 -14.58,15.84 -5.04,0 -7.38,-1.62 -7.38,-6.66 0,-1.62 0.18,-3.42 0.72,-5.76 l 13.14,-61.2 -26.1,0 z m -10.98,10.26 c 5.58,0 7.2,4.68 7.38,6.84 l -8.64,40.68 c -2.16,10.44 -9.72,15.84 -14.94,15.84 -3.24,0 -9,-0.18 -9,-14.04 0,-16.92 9.9,-49.32 25.2,-49.32 z" />
    <path
       inkscape:connector-curvature="0"
       id="path4295"
       style="font-style:italic;font-variant:normal;font-weight:bold;font-stretch:normal;font-size:180px;line-height:125%;font-family:'Lobster Two';-inkscape-font-specification:'Lobster Two';letter-spacing:0px;word-spacing:0px;fill:#008080;fill-opacity:1;stroke:none;stroke-width:1px;stroke-linecap:butt;stroke-linejoin:miter;stroke-opacity:1"
       d="m 492.71702,432.98651 -19.08,90 25.92,0 14.4,-68.4 c 4.68,-4.32 8.64,-7.2 13.14,-7.2 5.4,0 0.36,11.34 10.44,11.34 8.82,0 12.96,-6.84 12.96,-13.14 0,-6.84 -4.32,-13.5 -12.42,-13.5 -7.2,0 -15.12,5.58 -21.96,12.24 l 2.52,-11.34 -25.92,0 z" />
    <path
       style="font-style:italic;font-variant:normal;font-weight:bold;font-stretch:normal;font-size:180px;line-height:125%;font-family:'Lobster Two';-inkscape-font-specification:'Lobster Two';letter-spacing:0px;word-spacing:0px;fill:#008080;fill-opacity:1;stroke:none;stroke-width:1px;stroke-linecap:butt;stroke-linejoin:miter;stroke-opacity:1"
       d="m 591.12891,396.98633 -26.64063,3.59961 -26.09961,122.40039 25.91992,0 9.35938,-44.45899 c 5.04,-4.14 9.18031,-6.66015 13.32031,-6.66015 4.68,0 6.48047,3.41867 6.48047,8.63867 0,1.98 -0.1807,4.32016 -0.7207,6.66016 l -1.43946,7.01953 c -0.72,3.42 -1.08007,6.48133 -1.08007,9.36133 0,13.14 7.91968,20.51953 22.67968,20.51953 4.68,0 15.84024,-5.75907 16.74024,-18.53907 -1.26,0.54 -1.98078,1.08008 -6.30078,1.08008 -5.58,0 -7.01954,-3.06015 -7.01954,-6.66015 0,-1.98 0.5404,-3.96172 0.9004,-5.76172 l 1.98046,-9 c 0.54,-2.34 0.71875,-4.67985 0.71875,-6.83985 0,-11.52 -6.47882,-21.05859 -19.79882,-21.05859 -1.98,0 -3.95946,0.35875 -5.93946,0.71875 l 36,-25.01953 -17.82031,0 -34.74023,27.35937 13.5,-63.35937 z m -20.84766,2.85547 -7.45313,53.83398 13.13282,-5.87695 -21.01172,75.16406 7.31445,-51.78711 -10.83008,5.13086 18.84766,-76.46484 z m -7.625,44.25 -3.59375,15.77148 11.79102,-4.27734 -2.55274,11.67773 3.94727,-14.39258 -12.20703,5.36914 2.61523,-14.14843 z"
       id="path4297"
       inkscape:connector-curvature="0" />
  </g>
</svg>
